<?xml version="1.0" standalone="no"?><!DOCTYPE svg PUBLIC "-//W3C//DTD SVG 1.1//EN" "http://www.w3.org/Graphics/SVG/1.1/DTD/svg11.dtd"><svg t="1574047218975" class="icon" viewBox="0 0 1024 1024" version="1.1" xmlns="http://www.w3.org/2000/svg" p-id="10103" xmlns:xlink="http://www.w3.org/1999/xlink" width="128" height="128"><defs><style type="text/css"></style></defs><path d="M921.159262 782.437316 100.165816 782.437316c-20.860097 0-37.20025-17.045211-37.20025-38.804794L62.965565 281.137005c0-21.872147 16.340153-39.004339 37.20025-39.004339l820.992423 0c21.077038 0 38.223556 17.497513 38.223556 39.004339l0 462.496539C959.381795 765.030877 942.235276 782.437316 921.159262 782.437316zM100.165816 267.714298c-6.622838 0-11.617595 5.770424-11.617595 13.421684l0 462.496539c0 7.537673 4.994758 13.222139 11.617595 13.222139l820.992423 0c6.970762 0 12.640901-5.931083 12.640901-13.222139L933.79914 281.137005c0-7.275707-5.788843-13.421684-12.640901-13.421684L100.165816 267.715321z" p-id="10104" fill="#515151"></path><path d="M517.677814 532.029172 92.344686 288.98781 105.072569 266.714528 517.741259 502.520091 934.673044 266.686898 947.302689 289.01544Z" p-id="10105" fill="#515151"></path></svg>